# xmcd
#
# Track frame offsets: 
#        150
#        25937
#        84991
#        145025
#        184747
#        232524
#        265459
#
# Disc length: 4473 seconds
#
# Revision: 1
# Processed by: cddbd v1.5.2PL0 Copyright (c) Steve Scherf et al.
# Submitted via: ExactAudioCopy v1.0b6
#
DISCID=4d117707
DTITLE=Mathias Grassow Featuring Jiří Mazánek - Music Infinity Meets V
DTITLE=irtues - Live In Prague 23th May 2009
DYEAR=2009
DGENRE=Ambient
TTITLE0=Nereus
TTITLE1=Taurus
TTITLE2=Themis
TTITLE3=Eremit
TTITLE4=Hyperion
TTITLE5=Taurus (Reprise)
TTITLE6=Nereus Live Video
EXTD=
EXTT0=
EXTT1=
EXTT2=
EXTT3=
EXTT4=
EXTT5=
EXTT6=
PLAYORDER=
